<?xml version="1.0" standalone="no"?>
<!DOCTYPE svg PUBLIC "-//W3C//DTD SVG 20010904//EN"
 "http://www.w3.org/TR/2001/REC-SVG-20010904/DTD/svg10.dtd">
<svg version="1.0" xmlns="http://www.w3.org/2000/svg"
 width="472.000000pt" height="472.000000pt" viewBox="0 0 472.000000 472.000000"
 preserveAspectRatio="xMidYMid meet">
<metadata>
Created by potrace 1.11, written by Peter Selinger 2001-2013
</metadata>
<g transform="translate(0.000000,472.000000) scale(0.100000,-0.100000)"
fill="#000000" stroke="none">
<path d="M300 2851 l0 -629 73 -26 c110 -39 247 -74 402 -101 225 -38 373 -48
634 -42 262 6 445 27 831 97 625 114 906 137 1325 110 291 -19 673 -78 805
-125 23 -8 44 -15 46 -15 2 0 4 306 4 680 l0 680 -2060 0 -2060 0 0 -629z
m1346 175 c58 -35 64 -57 64 -230 l0 -156 -40 0 -40 0 0 143 c0 187 4 181
-134 185 l-106 4 0 -166 0 -166 -40 0 -40 0 0 165 0 165 -125 0 -125 0 0 -165
0 -165 -40 0 -40 0 0 206 0 205 318 -3 c290 -3 320 -5 348 -22z m613 -1 c69
-41 76 -59 79 -231 l3 -154 -218 0 c-188 0 -223 2 -253 18 -44 22 -60 53 -60
119 0 41 5 58 25 81 34 41 92 52 270 52 80 0 145 3 145 8 -1 40 -57 51 -252
52 l-158 0 0 41 0 41 193 -4 c170 -3 196 -5 226 -23z m631 -14 l0 -40 -161 -3
c-145 -3 -162 -5 -175 -22 -10 -15 -14 -55 -14 -163 l0 -143 -40 0 -40 0 0
155 c0 165 6 194 49 222 40 26 75 31 234 32 l147 1 0 -39z m202 -166 l3 -205
-42 0 -43 0 0 205 0 205 40 0 39 0 3 -205z m628 165 l0 -40 -182 0 c-216 0
-228 -2 -228 -40 0 -37 14 -40 188 -40 168 0 205 -10 227 -64 18 -42 18 -59 4
-109 -18 -67 -35 -71 -276 -77 l-213 -5 0 43 0 42 200 0 c199 0 201 0 209 23
5 12 5 31 1 42 -7 19 -19 20 -176 25 -105 4 -177 10 -191 18 -36 20 -53 53
-53 103 0 53 33 104 73 112 12 2 111 5 220 6 l197 1 0 -40z"/>
<path d="M1935 2823 c-32 -8 -45 -24 -45 -54 0 -18 7 -32 19 -39 11 -6 90 -10
186 -10 l166 0 -3 53 -3 52 -150 1 c-82 1 -159 0 -170 -3z"/>
<path d="M1768 1871 c-80 -26 -122 -78 -122 -151 1 -63 25 -105 102 -176 58
-54 65 -63 53 -78 -15 -18 -56 -20 -112 -7 l-37 8 -4 -66 c-7 -109 -7 -110
113 -118 154 -11 241 51 242 172 1 65 -27 119 -92 177 -66 59 -68 72 -11 78
l45 5 3 69 c2 38 -1 73 -5 77 -13 13 -144 20 -175 10z m105 -86 c-2 -5 -22
-11 -45 -12 -23 -2 -50 -10 -60 -20 -34 -31 -23 -61 56 -142 40 -42 78 -86 85
-98 20 -38 13 -80 -18 -115 -26 -30 -35 -33 -100 -36 -59 -4 -71 -2 -71 11 0
12 12 15 58 14 71 -2 106 18 116 64 7 39 -19 87 -72 127 -100 76 -121 169 -47
211 24 13 101 10 98 -4z"/>
<path d="M2044 1855 c-3 -6 -3 -134 -2 -285 l3 -275 85 0 85 0 5 100 5 100 54
-77 c30 -43 58 -78 62 -78 3 0 19 19 34 43 15 23 39 58 54 77 l26 35 5 -100 5
-100 88 -3 87 -3 0 285 0 284 -72 4 c-84 4 -77 9 -163 -121 -33 -50 -62 -91
-65 -90 -4 0 -111 152 -141 201 -8 13 -151 16 -155 3z m187 -177 c45 -68 89
-131 97 -141 14 -16 22 -6 109 124 52 77 99 139 106 136 18 -6 17 -429 0 -434
-10 -4 -13 38 -13 187 0 105 -3 189 -8 186 -4 -2 -45 -61 -92 -130 -47 -69
-87 -126 -90 -126 -3 0 -45 60 -95 132 l-90 132 -3 -193 c-2 -147 -5 -192 -15
-188 -9 3 -13 57 -15 208 -2 204 -1 229 17 229 5 0 46 -55 92 -122z"/>
<path d="M2798 1862 l-88 -3 0 -285 0 -285 88 3 87 3 3 66 3 67 51 6 c96 13
166 57 194 123 19 44 18 146 -2 186 -49 96 -133 126 -336 119z m200 -86 c52
-27 74 -70 69 -138 -6 -95 -62 -138 -182 -138 l-65 0 0 -71 c0 -52 -3 -70 -12
-67 -10 4 -14 56 -16 209 -1 112 0 210 3 217 8 21 159 12 203 -12z"/>
<path d="M2820 1648 l0 -131 68 5 c113 8 158 47 156 135 -1 33 -7 51 -29 73
-31 32 -52 39 -138 44 l-57 4 0 -130z m134 40 c30 -42 11 -95 -35 -100 -23 -3
-24 0 -27 60 -3 60 -2 62 22 62 14 0 31 -9 40 -22z"/>
</g>
</svg>
